<svg width="150" height="48" viewBox="0 0 150 48" fill="none" xmlns="http://www.w3.org/2000/svg">
<rect width="150" height="48" rx="24" fill="#774AFF"/>
<path d="M99 27.2716V30.7635H102.614L113.275 20.4647L109.66 16.9728L99 27.2716ZM116.07 17.7643C116.446 17.4011 116.446 16.8145 116.07 16.4513L113.814 14.2724C113.438 13.9092 112.831 13.9092 112.455 14.2724L110.691 15.9764L114.306 19.4683L116.07 17.7643Z" fill="white"/>
<path d="M46.512 20.688H38.416V18.72H46.432V17.04H36.32V22.352H46.512V20.688ZM41.312 29.776C39.344 29.776 38.336 29.44 38.336 28.672C38.336 27.904 39.344 27.552 41.312 27.552C43.28 27.552 44.288 27.904 44.288 28.672C44.288 29.44 43.28 29.776 41.312 29.776ZM41.312 25.952C38.128 25.952 36.208 26.928 36.208 28.672C36.208 30.4 38.128 31.376 41.312 31.376C44.496 31.376 46.432 30.4 46.432 28.672C46.432 26.928 44.496 25.952 41.312 25.952ZM34.704 23.376V25.104H48.032V23.376H34.704ZM50.8788 28.704H59.1028V31.328H61.2148V27.04H50.8788V28.704ZM57.1348 24.528V23.472H61.4228V21.872H53.1508V20.912H61.1188V16.928H51.0388V18.528H59.0388V19.424H51.0707V23.472H55.0228V24.528H49.4068V26.208H62.7508V24.528H57.1348ZM68.3815 26.64C67.3895 26.64 66.6535 25.968 66.6535 24.848C66.6535 23.728 67.3895 23.04 68.3815 23.04C69.3735 23.04 70.0935 23.728 70.0935 24.832C70.0935 25.968 69.3735 26.64 68.3815 26.64ZM68.3815 21.328C66.2375 21.328 64.6375 22.784 64.6375 24.832C64.6375 26.912 66.2375 28.368 68.3815 28.368C70.5095 28.368 72.0935 26.912 72.0935 24.832C72.0935 22.784 70.5095 21.328 68.3815 21.328ZM69.4215 16.896H67.3095V18.816H64.0455V20.496H72.6215V18.816H69.4215V16.896ZM77.8055 22.4H75.6935V16.64H73.5815V31.376H75.6935V24.144H77.8055V22.4ZM79.6603 18.16V19.84H84.5723C84.2683 23.104 82.6363 25.408 78.8763 27.216L79.9803 28.88C85.2123 26.352 86.7323 22.672 86.7323 18.16H79.6603ZM88.9883 16.624V31.36H91.1163V16.624H88.9883Z" fill="white"/>
<rect x="99" y="32" width="13" height="1" fill="white" fill-opacity="0.42"/>
</svg>
