<svg width="40" height="40" viewBox="0 0 40 40" fill="none" xmlns="http://www.w3.org/2000/svg">
<circle cx="20" cy="20" r="20" fill="#9C9C9C"/>
<circle cx="14.9827" cy="11.5892" r="1.6497" fill="white"/>
<ellipse cx="24.8812" cy="11.5892" rx="1.64971" ry="1.6497" fill="white"/>
<path d="M20.1558 14.219C26.8581 14.219 32.3115 18.7809 32.3115 24.3861C32.3115 27.3125 29.7469 29.6907 26.5912 29.6907C23.6452 29.6907 21.2141 27.6219 20.8995 24.9608C20.7374 24.8989 20.4895 24.8281 20.1558 24.8281C19.8221 24.8281 19.5647 24.89 19.4122 24.9608C19.0976 27.6219 16.6664 29.6907 13.7204 29.6907C10.5647 29.6907 8.00011 27.3125 8.00011 24.3861C8.00011 18.7809 13.4535 14.219 20.1558 14.219Z" fill="#E0E0E0"/>
<path d="M20.1562 18.6393C24.2271 18.6393 27.5449 21.2209 27.5449 24.3859C27.5449 24.8722 27.1159 25.27 26.5915 25.27C26.0672 25.27 25.6381 24.8722 25.6381 24.3859C25.6381 22.1934 23.1784 20.4075 20.1562 20.4075C17.1339 20.4075 14.6742 22.1934 14.6742 24.3859C14.6742 24.8722 14.2451 25.27 13.7208 25.27C13.1964 25.27 12.7674 24.8722 12.7674 24.3859C12.7674 21.2209 16.0852 18.6393 20.1562 18.6393Z" fill="#9C9C9C"/>
</svg>
