<svg width="40" height="40" viewBox="0 0 40 40" fill="none" xmlns="http://www.w3.org/2000/svg">
<circle cx="20" cy="20" r="20" fill="#9C9C9C"/>
<circle cx="15.5149" cy="11.5892" r="1.6497" fill="white"/>
<ellipse cx="25.4134" cy="11.5892" rx="1.64971" ry="1.6497" fill="white"/>
<path d="M20.1557 29.6907C13.4534 29.6907 8 25.1287 8 19.5236C8 16.5972 10.5646 14.219 13.7203 14.219C16.6663 14.219 19.0974 16.2878 19.4121 18.9489C19.5741 19.0108 19.822 19.0815 20.1557 19.0815C20.4894 19.0815 20.7468 19.0196 20.8993 18.9489C21.214 16.2878 23.6451 14.219 26.5911 14.219C29.7468 14.219 32.3114 16.5972 32.3114 19.5236C32.3114 25.1287 26.858 29.6907 20.1557 29.6907Z" fill="#E0E0E0"/>
<path d="M20.1554 25.2704C16.0844 25.2704 12.7666 22.6888 12.7666 19.5237C12.7666 19.0375 13.1956 18.6396 13.72 18.6396C14.2444 18.6396 14.6734 19.0375 14.6734 19.5237C14.6734 21.7163 17.1331 23.5022 20.1554 23.5022C23.1776 23.5022 25.6374 21.7163 25.6374 19.5237C25.6374 19.0375 26.0664 18.6396 26.5907 18.6396C27.1151 18.6396 27.5441 19.0375 27.5441 19.5237C27.5441 22.6888 24.2263 25.2704 20.1554 25.2704Z" fill="#9C9C9C"/>
</svg>
