<svg width="40" height="40" viewBox="0 0 40 40" fill="none" xmlns="http://www.w3.org/2000/svg">
<circle cx="20" cy="20" r="20" fill="#9C9C9C"/>
<circle cx="14.9827" cy="11.5892" r="1.6497" fill="white"/>
<ellipse cx="24.8812" cy="11.5892" rx="1.64971" ry="1.6497" fill="white"/>
<path d="M27.3389 27.9288H12.6614C9.48845 27.9288 6.91797 25.4635 6.91797 22.4205C6.91797 19.3775 9.48845 16.9122 12.6614 16.9122H27.3389C30.5118 16.9122 33.0823 19.3775 33.0823 22.4205C33.0823 25.4635 30.5118 27.9288 27.3389 27.9288Z" fill="#E0E0E0"/>
<path d="M27.3385 23.2773H12.661C12.1683 23.2773 11.7676 22.8929 11.7676 22.4204C11.7676 21.948 12.1683 21.5636 12.661 21.5636H27.3385C27.8312 21.5636 28.232 21.948 28.232 22.4204C28.232 22.8929 27.8312 23.2773 27.3385 23.2773Z" fill="#9C9C9C"/>
</svg>
