<svg width="48" height="48" viewBox="0 0 48 48" fill="none" xmlns="http://www.w3.org/2000/svg">
<g filter="url(#filter0_d)">
<circle cx="24" cy="20" r="20" fill="#6B37FF"/>
<circle cx="19.5149" cy="11.5892" r="1.6497" fill="white"/>
<ellipse cx="29.4134" cy="11.5892" rx="1.64971" ry="1.6497" fill="white"/>
<path d="M24.1557 29.6907C17.4534 29.6907 12 25.1287 12 19.5236C12 16.5972 14.5646 14.219 17.7203 14.219C20.6663 14.219 23.0974 16.2878 23.4121 18.9489C23.5741 19.0108 23.822 19.0815 24.1557 19.0815C24.4894 19.0815 24.7468 19.0196 24.8993 18.9489C25.214 16.2878 27.6451 14.219 30.5911 14.219C33.7468 14.219 36.3114 16.5972 36.3114 19.5236C36.3114 25.1287 30.858 29.6907 24.1557 29.6907Z" fill="#FFE34F"/>
<path d="M24.1554 25.2704C20.0844 25.2704 16.7666 22.6888 16.7666 19.5237C16.7666 19.0375 17.1956 18.6396 17.72 18.6396C18.2444 18.6396 18.6734 19.0375 18.6734 19.5237C18.6734 21.7163 21.1331 23.5022 24.1554 23.5022C27.1776 23.5022 29.6374 21.7163 29.6374 19.5237C29.6374 19.0375 30.0664 18.6396 30.5907 18.6396C31.1151 18.6396 31.5441 19.0375 31.5441 19.5237C31.5441 22.6888 28.2263 25.2704 24.1554 25.2704Z" fill="#6B37FF"/>
</g>
<defs>
<filter id="filter0_d" x="0" y="0" width="48" height="48" filterUnits="userSpaceOnUse" color-interpolation-filters="sRGB">
<feFlood flood-opacity="0" result="BackgroundImageFix"/>
<feColorMatrix in="SourceAlpha" type="matrix" values="0 0 0 0 0 0 0 0 0 0 0 0 0 0 0 0 0 0 127 0"/>
<feOffset dy="4"/>
<feGaussianBlur stdDeviation="2"/>
<feColorMatrix type="matrix" values="0 0 0 0 0.454902 0 0 0 0 0.411765 0 0 0 0 1 0 0 0 0.4 0"/>
<feBlend mode="normal" in2="BackgroundImageFix" result="effect1_dropShadow"/>
<feBlend mode="normal" in="SourceGraphic" in2="effect1_dropShadow" result="shape"/>
</filter>
</defs>
</svg>
