<svg width="150" height="48" viewBox="0 0 150 48" fill="none" xmlns="http://www.w3.org/2000/svg">
<rect width="150" height="48" rx="24" fill="black"/>
<path d="M99 27.2716V30.7635H102.614L113.275 20.4647L109.66 16.9728L99 27.2716ZM116.07 17.7643C116.446 17.4011 116.446 16.8145 116.07 16.4513L113.814 14.2724C113.438 13.9092 112.831 13.9092 112.455 14.2724L110.691 15.9764L114.306 19.4683L116.07 17.7643Z" fill="white"/>
<path d="M37.632 23.584H42.416V17.888H35.456V19.568H40.256V21.92H35.472V27.984H36.8C39.472 27.984 41.632 27.888 44.032 27.472L43.808 25.76C41.728 26.112 39.872 26.224 37.632 26.24V23.584ZM44.832 16.624V31.408H46.944V16.624H44.832ZM59.0868 21.92H53.0228V20.448H59.0868V21.92ZM61.1668 17.168H59.0868V18.784H53.0228V17.168H50.9268V23.6H61.1668V17.168ZM62.7508 24.992H49.4068V26.688H52.3828V31.392H54.4948V26.688H57.6468V31.392H59.7748V26.688H62.7508V24.992ZM72.9255 23.376C70.6055 22.624 69.5975 20.88 69.5495 19.184H72.4295V17.504H64.4615V19.184H67.3895C67.3415 21.008 66.3015 22.848 63.9015 23.632L65.0055 25.28C66.7015 24.72 67.8535 23.584 68.5095 22.16C69.1495 23.456 70.2535 24.496 71.8535 25.008L72.9255 23.376ZM65.8855 27.856H73.6135V31.392H75.7255V26.176H65.8855V27.856ZM77.6775 20.192H75.7255V16.64H73.6135V25.52H75.7255V21.936H77.6775V20.192ZM89.0523 25.28H91.1643V16.64H89.0523V19.328H86.3643V21.04H89.0523V25.28ZM87.7083 23.152C85.3723 22.4 84.4123 20.608 84.4123 18.624V17.408H82.2682V18.72C82.2682 20.752 81.2283 22.752 78.7163 23.552L79.8203 25.248C81.5643 24.656 82.7323 23.472 83.3883 21.968C84.0123 23.28 85.0523 24.288 86.6042 24.816L87.7083 23.152ZM86.1883 29.76C84.2523 29.76 83.2443 29.36 83.2443 28.528C83.2443 27.68 84.2523 27.28 86.1883 27.28C88.1083 27.28 89.1163 27.68 89.1163 28.528C89.1163 29.36 88.1083 29.76 86.1883 29.76ZM86.1883 25.648C83.0523 25.648 81.1323 26.704 81.1323 28.528C81.1323 30.32 83.0523 31.376 86.1883 31.376C89.3083 31.376 91.2283 30.32 91.2283 28.528C91.2283 26.704 89.3083 25.648 86.1883 25.648Z" fill="white"/>
<rect x="99" y="32" width="13" height="1" fill="white" fill-opacity="0.42"/>
</svg>
