<svg width="20" height="20" viewBox="0 0 20 20" fill="none" xmlns="http://www.w3.org/2000/svg">
<path fill-rule="evenodd" clip-rule="evenodd" d="M8.04878 0C3.60356 0 0 3.60356 0 8.04878C0 12.494 3.60356 16.0976 8.04878 16.0976C10.0079 16.0976 11.8036 15.3976 13.1993 14.2341L18.7509 19.7857C19.0366 20.0714 19.4999 20.0714 19.7857 19.7857C20.0714 19.4999 20.0714 19.0366 19.7857 18.7509L14.2341 13.1993C15.3976 11.8036 16.0976 10.0079 16.0976 8.04878C16.0976 3.60356 12.494 0 8.04878 0ZM1.46341 8.04878C1.46341 4.41178 4.41178 1.46341 8.04878 1.46341C11.6858 1.46341 14.6341 4.41178 14.6341 8.04878C14.6341 11.6858 11.6858 14.6341 8.04878 14.6341C4.41178 14.6341 1.46341 11.6858 1.46341 8.04878Z" fill="black"/>
</svg>
